<svg width="17" height="16" viewBox="0 0 17 16" fill="none" xmlns="http://www.w3.org/2000/svg">
<path d="M8.50016 15.9169C5.29672 15.9188 2.40788 13.9899 1.18173 11.0304C-0.0444301 8.07093 0.633796 4.66419 2.89991 2.39996C4.90068 0.399181 7.81688 -0.382211 10.55 0.350124C13.2831 1.08246 15.4179 3.21726 16.1502 5.95037C16.8826 8.68349 16.1012 11.5997 14.1004 13.6005C12.618 15.0896 10.6014 15.9237 8.50016 15.9169ZM2.16682 8.13637C2.20428 11.6207 5.04937 14.4203 8.53383 14.4016C12.0183 14.3828 14.8331 11.5528 14.8331 8.06829C14.8331 4.58377 12.0183 1.75378 8.53383 1.73496C5.04937 1.71632 2.20428 4.51589 2.16682 8.00021V8.13637ZM6.44895 11.1669L5.33349 10.0506L7.38391 8.00021L5.33349 5.94979L6.44974 4.83354L8.50016 6.88396L10.5506 4.83354L11.6668 5.94979L9.61641 8.00021L11.6668 10.0506L10.5514 11.1669L8.50016 9.11646L6.44974 11.1669H6.44895Z" fill="#2E3A59"/>
</svg>
