<svg width="25" height="26" viewBox="0 0 25 26" fill="none" xmlns="http://www.w3.org/2000/svg">
<path d="M17.8811 3.69446H7.83868C4.82594 3.69446 2.81744 5.27779 2.81744 8.97224V16.3611C2.81744 20.0556 4.82594 21.6389 7.83868 21.6389H17.8811C20.8939 21.6389 22.9024 20.0556 22.9024 16.3611V8.97224C22.9024 5.27779 20.8939 3.69446 17.8811 3.69446ZM18.3531 10.1228L15.2098 12.7617C14.547 13.3211 13.7035 13.5956 12.8599 13.5956C12.0163 13.5956 11.1627 13.3211 10.51 12.7617L7.36668 10.1228C7.04532 9.84835 6.99511 9.34168 7.24617 9.0039C7.50727 8.66612 7.97927 8.60279 8.30063 8.87724L11.4439 11.5161C12.2071 12.16 13.5026 12.16 14.2659 11.5161L17.4091 8.87724C17.7305 8.60279 18.2125 8.65557 18.4636 9.0039C18.7247 9.34168 18.6745 9.84835 18.3531 10.1228Z" fill="#1A3447"/>
</svg>
