<svg width="39" height="24" viewBox="0 0 39 24" fill="none" xmlns="http://www.w3.org/2000/svg">
<path d="M27 15.7121L33.01 9.70211L31.597 8.28711L27 12.8871L22.404 8.28711L20.99 9.70111L27 15.7121Z" fill="#4F4F4F"/>
<path d="M15 4.25H3C2.58525 4.25 2.25 4.58525 2.25 5V6.9425C2.25 7.33475 2.40975 7.72025 2.68725 7.99775L6.75 12.0605V17.75C6.75 18.0103 6.885 18.251 7.10625 18.3882C7.22625 18.4625 7.36275 18.5 7.5 18.5C7.61475 18.5 7.7295 18.4738 7.83525 18.4213L10.8352 16.9213C11.0895 16.7938 11.25 16.5343 11.25 16.25V12.0605L15.3127 7.99775C15.5902 7.72025 15.75 7.33475 15.75 6.9425V5C15.75 4.58525 15.4147 4.25 15 4.25ZM9.96975 11.2198C9.82875 11.36 9.75 11.5505 9.75 11.75V15.7865L8.25 16.5365V11.75C8.25 11.5505 8.17125 11.36 8.03025 11.2198L3.75 6.9425V5.75H14.2507L14.2523 6.93725L9.96975 11.2198Z" fill="#333333"/>
</svg>
