<svg width="24" height="24" viewBox="0 0 24 24" fill="none" xmlns="http://www.w3.org/2000/svg">
<path d="M9 22H15C20 22 22 20 22 15V9C22 4 20 2 15 2H9C4 2 2 4 2 9V15C2 20 4 22 9 22Z" stroke="#1A3447" stroke-width="1.5" stroke-linecap="round" stroke-linejoin="round"/>
<path d="M16.2799 13.6096C15.1499 14.7396 13.5299 15.0896 12.0999 14.6396L9.50995 17.2196C9.32995 17.4096 8.95995 17.5296 8.68995 17.4896L7.48995 17.3296C7.08995 17.2796 6.72995 16.8996 6.66995 16.5096L6.50995 15.3096C6.46995 15.0496 6.59995 14.6796 6.77995 14.4896L9.35995 11.9096C8.91995 10.4796 9.25995 8.85965 10.3899 7.72965C12.0099 6.10965 14.6499 6.10965 16.2799 7.72965C17.8999 9.33965 17.8999 11.9796 16.2799 13.6096Z" stroke="#1A3447" stroke-width="1.5" stroke-miterlimit="10" stroke-linecap="round" stroke-linejoin="round"/>
<path d="M10.4501 16.2799L9.6001 15.4199" stroke="#1A3447" stroke-width="1.5" stroke-miterlimit="10" stroke-linecap="round" stroke-linejoin="round"/>
<path d="M13.3945 10.7002H13.4035" stroke="#1A3447" stroke-width="2" stroke-linecap="round" stroke-linejoin="round"/>
</svg>
