<svg width="14" height="16" viewBox="0 0 14 16" fill="none" xmlns="http://www.w3.org/2000/svg">
<path d="M7 15.5L4.75 13.25H1.75C0.921573 13.25 0.25 12.5784 0.25 11.75V2C0.25 1.17157 0.921573 0.5 1.75 0.5H12.25C13.0784 0.5 13.75 1.17157 13.75 2V11.75C13.75 12.5784 13.0784 13.25 12.25 13.25H9.25L7 15.5ZM1.75 2V11.75H5.5L7 13.25L8.5 11.75H12.25V2H1.75ZM10 10.2395H4V9.95C4.08876 8.37882 5.42818 7.17334 7 7.25C8.57182 7.17334 9.91124 8.37882 10 9.95V10.2387V10.2395ZM7 6.5C6.59806 6.51397 6.20836 6.36042 5.92397 6.07603C5.63958 5.79164 5.48603 5.40194 5.5 5C5.48626 4.59812 5.63988 4.20855 5.92421 3.92421C6.20855 3.63988 6.59812 3.48626 7 3.5C7.40188 3.48626 7.79145 3.63988 8.07579 3.92421C8.36013 4.20855 8.51374 4.59812 8.5 5C8.51397 5.40194 8.36042 5.79164 8.07603 6.07603C7.79164 6.36042 7.40194 6.51397 7 6.5Z" fill="#2E3A59"/>
</svg>
