<svg width="10" height="12" viewBox="0 0 10 12" fill="none" xmlns="http://www.w3.org/2000/svg">
<path d="M1.875 3.1875C1.875 1.46161 3.27411 0.0625 5 0.0625C6.72589 0.0625 8.125 1.46161 8.125 3.1875C8.125 4.91339 6.72589 6.3125 5 6.3125C3.27411 6.3125 1.875 4.91339 1.875 3.1875ZM5 5.0625C6.03553 5.0625 6.875 4.22303 6.875 3.1875C6.875 2.15197 6.03553 1.3125 5 1.3125C3.96447 1.3125 3.125 2.15197 3.125 3.1875C3.125 4.22303 3.96447 5.0625 5 5.0625Z" fill="#828282"/>
<path d="M1.46447 8.40197C0.526784 9.33965 0 10.6114 0 11.9375H1.25C1.25 10.9429 1.64509 9.98911 2.34835 9.28585C3.05161 8.58259 4.00544 8.1875 5 8.1875C5.99456 8.1875 6.94839 8.58259 7.65165 9.28585C8.35491 9.98911 8.75 10.9429 8.75 11.9375H10C10 10.6114 9.47322 9.33965 8.53553 8.40197C7.59785 7.46428 6.32608 6.9375 5 6.9375C3.67392 6.9375 2.40215 7.46428 1.46447 8.40197Z" fill="#828282"/>
</svg>
