<svg width="24" height="24" viewBox="0 0 24 24" fill="none" xmlns="http://www.w3.org/2000/svg">
<rect width="24" height="24" fill="white"/>
<path d="M10.7516 16.8604V18.8904C10.7516 20.6104 9.15158 22.0004 7.18158 22.0004C5.21158 22.0004 3.60156 20.6104 3.60156 18.8904V16.8604C3.60156 18.5804 5.20158 19.8004 7.18158 19.8004C9.15158 19.8004 10.7516 18.5704 10.7516 16.8604Z" stroke="#1A3447" stroke-width="1.5" stroke-linecap="round" stroke-linejoin="round"/>
<path d="M10.7501 14.1098C10.7501 14.6098 10.6101 15.0698 10.3701 15.4698C9.78006 16.4398 8.57004 17.0498 7.17004 17.0498C5.77004 17.0498 4.56003 16.4298 3.97003 15.4698C3.73003 15.0698 3.59009 14.6098 3.59009 14.1098C3.59009 13.2498 3.99007 12.4798 4.63007 11.9198C5.28007 11.3498 6.17003 11.0098 7.16003 11.0098C8.15003 11.0098 9.04006 11.3598 9.69006 11.9198C10.3501 12.4698 10.7501 13.2498 10.7501 14.1098Z" stroke="#1A3447" stroke-width="1.5" stroke-linecap="round" stroke-linejoin="round"/>
<path d="M10.7516 14.11V16.86C10.7516 18.58 9.15158 19.8 7.18158 19.8C5.21158 19.8 3.60156 18.57 3.60156 16.86V14.11C3.60156 12.39 5.20158 11 7.18158 11C8.17158 11 9.06161 11.35 9.71161 11.91C10.3516 12.47 10.7516 13.25 10.7516 14.11Z" stroke="#1A3447" stroke-width="1.5" stroke-linecap="round" stroke-linejoin="round"/>
<path d="M22 10.9701V13.0302C22 13.5802 21.56 14.0301 21 14.0501H19.0399C17.9599 14.0501 16.97 13.2601 16.88 12.1801C16.82 11.5501 17.0599 10.9601 17.4799 10.5501C17.8499 10.1701 18.36 9.9502 18.92 9.9502H21C21.56 9.9702 22 10.4201 22 10.9701Z" stroke="#1A3447" stroke-width="1.5" stroke-linecap="round" stroke-linejoin="round"/>
<path d="M2 10.5V8.5C2 5.78 3.64 3.88 6.19 3.56C6.45 3.52 6.72 3.5 7 3.5H16C16.26 3.5 16.51 3.50999 16.75 3.54999C19.33 3.84999 21 5.76 21 8.5V9.95001H18.92C18.36 9.95001 17.85 10.17 17.48 10.55C17.06 10.96 16.82 11.55 16.88 12.18C16.97 13.26 17.96 14.05 19.04 14.05H21V15.5C21 18.5 19 20.5 16 20.5H13.5" stroke="#1A3447" stroke-width="1.5" stroke-linecap="round" stroke-linejoin="round"/>
</svg>
