<svg width="14" height="14" viewBox="0 0 14 14" fill="none" xmlns="http://www.w3.org/2000/svg">
<path d="M1.13083 13.0772C0.932129 13.0769 0.74271 12.9931 0.608787 12.8463C0.472394 12.7007 0.40462 12.5038 0.422495 12.3051L0.596037 10.3969L8.61295 2.38279L11.1183 4.88745L3.10354 12.9008L1.19529 13.0744C1.17333 13.0765 1.15137 13.0772 1.13083 13.0772ZM11.6184 4.38666L9.11375 1.88199L10.6161 0.37962C10.749 0.246611 10.9293 0.171875 11.1173 0.171875C11.3053 0.171875 11.4856 0.246611 11.6184 0.37962L13.1208 1.88199C13.2538 2.01486 13.3285 2.19514 13.3285 2.38314C13.3285 2.57114 13.2538 2.75143 13.1208 2.88429L11.6191 4.38595L11.6184 4.38666Z" fill="#2E3A59"/>
</svg>
