<svg width="21" height="19" viewBox="0 0 21 19" fill="none" xmlns="http://www.w3.org/2000/svg">
<path d="M15.8811 0.694458H5.83868C2.82594 0.694458 0.817444 2.27779 0.817444 5.97224V13.3611C0.817444 17.0556 2.82594 18.6389 5.83868 18.6389H15.8811C18.8939 18.6389 20.9024 17.0556 20.9024 13.3611V5.97224C20.9024 2.27779 18.8939 0.694458 15.8811 0.694458ZM16.3531 7.12279L13.2098 9.76168C12.547 10.3211 11.7035 10.5956 10.8599 10.5956C10.0163 10.5956 9.16273 10.3211 8.50997 9.76168L5.36668 7.12279C5.04532 6.84835 4.99511 6.34168 5.24617 6.0039C5.50727 5.66612 5.97927 5.60279 6.30063 5.87723L9.44392 8.51612C10.2071 9.16001 11.5026 9.16001 12.2659 8.51612L15.4091 5.87723C15.7305 5.60279 16.2125 5.65557 16.4636 6.0039C16.7247 6.34168 16.6745 6.84835 16.3531 7.12279Z" fill="#B0B0B0"/>
</svg>
