<svg width="25" height="26" viewBox="0 0 25 26" fill="none" xmlns="http://www.w3.org/2000/svg">
<path d="M22.1492 9.65838C19.8294 5.82672 16.435 3.62061 12.8599 3.62061C11.0723 3.62061 9.335 4.16949 7.74829 5.19338C6.16158 6.22783 4.73555 7.73727 3.57063 9.65838C2.56638 11.3156 2.56638 14.0073 3.57063 15.6645C5.89044 19.5067 9.28479 21.7023 12.8599 21.7023C14.6475 21.7023 16.3848 21.1534 17.9715 20.1295C19.5582 19.0951 20.9842 17.5856 22.1492 15.6645C23.1534 14.0178 23.1534 11.3156 22.1492 9.65838ZM12.8599 16.9312C10.6104 16.9312 8.80275 15.0206 8.80275 12.6667C8.80275 10.3128 10.6104 8.40227 12.8599 8.40227C15.1094 8.40227 16.9171 10.3128 16.9171 12.6667C16.9171 15.0206 15.1094 16.9312 12.8599 16.9312Z" fill="#1A3447"/>
<path d="M12.8599 9.64783C11.2832 9.64783 9.9978 10.9989 9.9978 12.6667C9.9978 14.3239 11.2832 15.6751 12.8599 15.6751C14.4366 15.6751 15.732 14.3239 15.732 12.6667C15.732 11.0095 14.4366 9.64783 12.8599 9.64783Z" fill="#1A3447"/>
</svg>
