<svg width="25" height="26" viewBox="0 0 25 26" fill="none" xmlns="http://www.w3.org/2000/svg">
<path d="M12.8599 2.61096C10.2288 2.61096 8.08972 4.8593 8.08972 7.62485C8.08972 10.3376 10.1083 12.5332 12.7394 12.6282C12.8197 12.6176 12.9001 12.6176 12.9603 12.6282C12.9804 12.6282 12.9904 12.6282 13.0105 12.6282C13.0206 12.6282 13.0206 12.6282 13.0306 12.6282C15.6015 12.5332 17.62 10.3376 17.6301 7.62485C17.6301 4.8593 15.491 2.61096 12.8599 2.61096Z" fill="#B0B0B0"/>
<path d="M17.9615 15.436C15.1597 13.4727 10.5903 13.4727 7.7684 15.436C6.49301 16.3332 5.79004 17.5471 5.79004 18.8454C5.79004 20.1438 6.49301 21.3471 7.75836 22.2338C9.16431 23.226 11.0121 23.7221 12.8599 23.7221C14.7077 23.7221 16.5556 23.226 17.9615 22.2338C19.2269 21.3366 19.9298 20.1332 19.9298 18.8243C19.9198 17.526 19.2269 16.3227 17.9615 15.436Z" fill="#B0B0B0"/>
</svg>
