<svg width="24" height="24" viewBox="0 0 24 24" fill="none" xmlns="http://www.w3.org/2000/svg">
<path d="M9 22H15C20 22 22 20 22 15V9C22 4 20 2 15 2H9C4 2 2 4 2 9V15C2 20 4 22 9 22Z" stroke="white" stroke-width="1.5" stroke-linecap="round" stroke-linejoin="round"/>
<path d="M16.28 13.6106C15.15 14.7406 13.53 15.0906 12.1 14.6406L9.51001 17.2206C9.33001 17.4106 8.96001 17.5306 8.69001 17.4906L7.49001 17.3306C7.09001 17.2806 6.73001 16.9006 6.67001 16.5106L6.51001 15.3106C6.47001 15.0506 6.60001 14.6806 6.78001 14.4906L9.36001 11.9106C8.92001 10.4806 9.26001 8.86063 10.39 7.73063C12.01 6.11063 14.65 6.11063 16.28 7.73063C17.9 9.34063 17.9 11.9806 16.28 13.6106Z" stroke="white" stroke-width="1.5" stroke-miterlimit="10" stroke-linecap="round" stroke-linejoin="round"/>
<path d="M10.45 16.2799L9.59998 15.4199" stroke="white" stroke-width="1.5" stroke-miterlimit="10" stroke-linecap="round" stroke-linejoin="round"/>
<path d="M13.3945 10.6992H13.4035" stroke="white" stroke-width="2" stroke-linecap="round" stroke-linejoin="round"/>
</svg>
