<svg width="630" height="274" viewBox="0 0 630 274" fill="none" xmlns="http://www.w3.org/2000/svg">
<rect width="630" height="274" rx="14" fill="white"/>
<rect x="28" y="55" width="0.5" height="150" fill="#F3F0FE"/>
<rect x="80.7727" y="55" width="0.5" height="150" fill="#F3F0FE"/>
<rect x="133.545" y="55" width="0.5" height="150" fill="#F3F0FE"/>
<rect x="186.318" y="55" width="0.5" height="150" fill="#F3F0FE"/>
<rect x="239.091" y="55" width="0.5" height="150" fill="#F3F0FE"/>
<rect x="291.864" y="55" width="0.5" height="150" fill="#F3F0FE"/>
<rect x="344.636" y="55" width="0.5" height="150" fill="#F3F0FE"/>
<rect x="397.409" y="55" width="0.5" height="150" fill="#F3F0FE"/>
<rect x="450.182" y="55" width="0.5" height="150" fill="#F3F0FE"/>
<rect x="502.955" y="55" width="0.5" height="150" fill="#F3F0FE"/>
<rect x="555.727" y="55" width="0.5" height="150" fill="#F3F0FE"/>
<rect x="608.5" y="55" width="0.5" height="150" fill="#F3F0FE"/>
<rect x="285" y="22" width="41" height="178" rx="10" fill="url(#paint0_linear_3425_5156)"/>
<path d="M28 162C38.2529 159.835 63.3157 153.807 81.5431 147.012C104.327 138.519 129.39 127.528 147.048 124.03C164.706 120.533 184.642 118.035 207.996 119.034C231.35 120.033 296.855 128.027 330.462 129.026C364.069 130.025 381.726 122.531 393.119 116.536C404.511 110.541 429.574 92.0558 456.915 86.0606C484.256 80.0654 503.053 83.063 531.533 73.0709C560.014 63.0789 575.963 55.0853 609 56.0845" stroke="#A162F7"/>
<path d="M81.5431 147.03C63.3157 153.826 38.2529 159.856 28 162.021V198H609V56.0845C575.963 55.0851 560.014 63.0804 531.533 73.0744C503.053 83.0684 484.256 80.0702 456.915 86.0667C429.574 92.0631 404.511 110.552 393.119 116.549C381.726 122.545 364.069 130.04 330.462 129.041C296.855 128.042 231.35 120.046 207.996 119.047C184.642 118.048 164.706 120.546 147.048 124.044C129.39 127.542 104.327 138.535 81.5431 147.03Z" fill="url(#paint1_linear_3425_5156)"/>
<circle cx="305.5" cy="127.5" r="4" fill="#A162F7" stroke="white" stroke-width="3"/>
<path d="M346.923 56V46.9H348.548L351.629 52.958L354.697 46.9H356.322V56H354.944V49.279L352.162 54.7H351.096L348.301 49.292V56H346.923ZM360.303 56.156C359.757 56.156 359.306 56.065 358.951 55.883C358.596 55.701 358.331 55.4627 358.158 55.168C357.985 54.8647 357.898 54.5353 357.898 54.18C357.898 53.556 358.141 53.062 358.626 52.698C359.111 52.334 359.805 52.152 360.706 52.152H362.396V52.035C362.396 51.5323 362.257 51.1553 361.98 50.904C361.711 50.6527 361.36 50.527 360.927 50.527C360.546 50.527 360.212 50.6223 359.926 50.813C359.649 50.995 359.48 51.268 359.419 51.632H358.041C358.084 51.164 358.24 50.7653 358.509 50.436C358.786 50.098 359.133 49.8423 359.549 49.669C359.974 49.487 360.437 49.396 360.94 49.396C361.841 49.396 362.539 49.6343 363.033 50.111C363.527 50.579 363.774 51.2203 363.774 52.035V56H362.578L362.461 54.895C362.279 55.2503 362.015 55.5493 361.668 55.792C361.321 56.0347 360.866 56.156 360.303 56.156ZM360.576 55.038C360.949 55.038 361.261 54.9513 361.512 54.778C361.772 54.596 361.971 54.3577 362.11 54.063C362.257 53.7683 362.348 53.4433 362.383 53.088H360.849C360.303 53.088 359.913 53.1833 359.679 53.374C359.454 53.5647 359.341 53.803 359.341 54.089C359.341 54.3837 359.449 54.6177 359.666 54.791C359.891 54.9557 360.195 55.038 360.576 55.038ZM364.757 56L367.045 52.776L364.757 49.552H366.226L367.955 52.022L369.671 49.552H371.153L368.865 52.776L371.153 56H369.671L367.955 53.53L366.226 56H364.757ZM375.602 56V46.9H381.309V48.018H376.98V50.891H380.568V51.996H376.98V56H375.602ZM382.608 56V46.64H383.986V56H382.608ZM386.511 48.33C386.251 48.33 386.035 48.252 385.861 48.096C385.697 47.9313 385.614 47.7277 385.614 47.485C385.614 47.2423 385.697 47.043 385.861 46.887C386.035 46.7223 386.251 46.64 386.511 46.64C386.771 46.64 386.984 46.7223 387.148 46.887C387.322 47.043 387.408 47.2423 387.408 47.485C387.408 47.7277 387.322 47.9313 387.148 48.096C386.984 48.252 386.771 48.33 386.511 48.33ZM385.822 56V49.552H387.2V56H385.822ZM391.658 54.024C391.32 54.024 391.008 53.985 390.722 53.907L390.163 54.453C390.259 54.5137 390.376 54.5657 390.514 54.609C390.653 54.6523 390.848 54.6913 391.099 54.726C391.351 54.7607 391.693 54.7953 392.126 54.83C392.984 54.908 393.604 55.116 393.985 55.454C394.367 55.7833 394.557 56.2253 394.557 56.78C394.557 57.1613 394.453 57.521 394.245 57.859C394.046 58.2057 393.73 58.483 393.296 58.691C392.872 58.9077 392.326 59.016 391.658 59.016C390.757 59.016 390.025 58.8427 389.461 58.496C388.907 58.158 388.629 57.6423 388.629 56.949C388.629 56.6803 388.699 56.4117 388.837 56.143C388.985 55.883 389.214 55.636 389.526 55.402C389.344 55.324 389.184 55.2417 389.045 55.155C388.915 55.0597 388.798 54.9643 388.694 54.869V54.557L389.812 53.413C389.31 52.9797 389.058 52.412 389.058 51.71C389.058 51.2853 389.158 50.8997 389.357 50.553C389.565 50.1977 389.864 49.916 390.254 49.708C390.644 49.5 391.112 49.396 391.658 49.396C392.022 49.396 392.36 49.448 392.672 49.552H395.077V50.462L393.933 50.527C394.141 50.8823 394.245 51.2767 394.245 51.71C394.245 52.1433 394.141 52.5333 393.933 52.88C393.734 53.2267 393.439 53.504 393.049 53.712C392.668 53.92 392.204 54.024 391.658 54.024ZM391.658 52.945C392.057 52.945 392.378 52.841 392.62 52.633C392.872 52.4163 392.997 52.113 392.997 51.723C392.997 51.3243 392.872 51.021 392.62 50.813C392.378 50.605 392.057 50.501 391.658 50.501C391.251 50.501 390.922 50.605 390.67 50.813C390.428 51.021 390.306 51.3243 390.306 51.723C390.306 52.113 390.428 52.4163 390.67 52.633C390.922 52.841 391.251 52.945 391.658 52.945ZM389.929 56.819C389.929 57.1917 390.094 57.469 390.423 57.651C390.753 57.8417 391.164 57.937 391.658 57.937C392.135 57.937 392.521 57.833 392.815 57.625C393.11 57.4257 393.257 57.157 393.257 56.819C393.257 56.5677 393.158 56.351 392.958 56.169C392.759 55.9957 392.382 55.8873 391.827 55.844C391.411 55.818 391.043 55.779 390.722 55.727C390.419 55.8917 390.211 56.0693 390.098 56.26C389.986 56.4507 389.929 56.637 389.929 56.819ZM396.307 56V46.64H397.685V50.592C397.901 50.2193 398.2 49.929 398.582 49.721C398.972 49.5043 399.401 49.396 399.869 49.396C400.64 49.396 401.247 49.6387 401.689 50.124C402.131 50.6093 402.352 51.333 402.352 52.295V56H400.987V52.438C400.987 51.19 400.488 50.566 399.492 50.566C398.972 50.566 398.538 50.748 398.192 51.112C397.854 51.476 397.685 51.996 397.685 52.672V56H396.307ZM406.679 56C406.046 56 405.543 55.8483 405.171 55.545C404.798 55.233 404.612 54.6827 404.612 53.894V50.709H403.507V49.552H404.612L404.781 47.914H405.99V49.552H407.81V50.709H405.99V53.894C405.99 54.2493 406.063 54.4963 406.211 54.635C406.367 54.765 406.631 54.83 407.004 54.83H407.745V56H406.679ZM411.804 56.156C410.99 56.156 410.318 55.9567 409.789 55.558C409.261 55.1593 408.957 54.6307 408.879 53.972H410.27C410.34 54.2667 410.504 54.5223 410.764 54.739C411.024 54.947 411.367 55.051 411.791 55.051C412.207 55.051 412.511 54.9643 412.701 54.791C412.892 54.6177 412.987 54.4183 412.987 54.193C412.987 53.8637 412.853 53.6427 412.584 53.53C412.324 53.4087 411.96 53.3003 411.492 53.205C411.128 53.127 410.764 53.023 410.4 52.893C410.045 52.763 409.746 52.581 409.503 52.347C409.269 52.1043 409.152 51.7793 409.152 51.372C409.152 50.8087 409.369 50.3407 409.802 49.968C410.236 49.5867 410.842 49.396 411.622 49.396C412.342 49.396 412.922 49.5693 413.364 49.916C413.815 50.2627 414.079 50.7523 414.157 51.385H412.831C412.788 51.1077 412.658 50.891 412.441 50.735C412.233 50.579 411.952 50.501 411.596 50.501C411.25 50.501 410.981 50.5747 410.79 50.722C410.6 50.8607 410.504 51.0427 410.504 51.268C410.504 51.4933 410.634 51.671 410.894 51.801C411.163 51.931 411.514 52.048 411.947 52.152C412.381 52.2473 412.779 52.36 413.143 52.49C413.516 52.6113 413.815 52.7933 414.04 53.036C414.266 53.2787 414.378 53.634 414.378 54.102C414.387 54.6913 414.157 55.181 413.689 55.571C413.23 55.961 412.602 56.156 411.804 56.156Z" fill="#72767C"/>
<path d="M348.592 84V74.028L346.522 74.514V72.75L349.564 71.4H350.986V84H348.592ZM353.123 84V82.326C353.891 81.69 354.635 81.06 355.355 80.436C356.087 79.812 356.735 79.194 357.299 78.582C357.875 77.97 358.331 77.376 358.667 76.8C359.015 76.212 359.189 75.642 359.189 75.09C359.189 74.574 359.045 74.118 358.757 73.722C358.481 73.326 358.019 73.128 357.371 73.128C356.711 73.128 356.213 73.344 355.877 73.776C355.541 74.208 355.373 74.73 355.373 75.342H353.141C353.165 74.418 353.369 73.65 353.753 73.038C354.137 72.414 354.647 71.952 355.283 71.652C355.919 71.34 356.633 71.184 357.425 71.184C358.709 71.184 359.705 71.538 360.413 72.246C361.133 72.942 361.493 73.848 361.493 74.964C361.493 75.66 361.331 76.338 361.007 76.998C360.695 77.658 360.281 78.294 359.765 78.906C359.249 79.518 358.691 80.094 358.091 80.634C357.491 81.162 356.909 81.654 356.345 82.11H361.799V84H353.123Z" fill="#242731"/>
<path d="M25.716 223V216.04L24.36 216.352V215.416L26.22 214.6H27.036V223H25.716ZM28.5746 223V222.088C29.1186 221.656 29.6386 221.22 30.1346 220.78C30.6306 220.34 31.0706 219.908 31.4546 219.484C31.8466 219.052 32.1546 218.632 32.3786 218.224C32.6026 217.808 32.7146 217.408 32.7146 217.024C32.7146 216.768 32.6706 216.528 32.5826 216.304C32.4946 216.072 32.3506 215.888 32.1506 215.752C31.9506 215.608 31.6826 215.536 31.3466 215.536C30.8426 215.536 30.4626 215.696 30.2066 216.016C29.9586 216.336 29.8386 216.72 29.8466 217.168H28.6106C28.6186 216.576 28.7426 216.08 28.9826 215.68C29.2306 215.28 29.5586 214.976 29.9666 214.768C30.3826 214.56 30.8506 214.456 31.3706 214.456C32.1626 214.456 32.7946 214.68 33.2666 215.128C33.7466 215.568 33.9866 216.184 33.9866 216.976C33.9866 217.448 33.8706 217.916 33.6386 218.38C33.4146 218.844 33.1186 219.292 32.7506 219.724C32.3906 220.148 32.0026 220.548 31.5866 220.924C31.1706 221.3 30.7746 221.64 30.3986 221.944H34.2386V223H28.5746ZM35.0698 224.236L38.0698 213.748H39.3178L36.3058 224.236H35.0698ZM42.8712 223.144C42.3192 223.144 41.8472 223.036 41.4552 222.82C41.0632 222.604 40.7552 222.316 40.5312 221.956C40.3152 221.596 40.1832 221.204 40.1352 220.78H41.3232C41.3952 221.196 41.5672 221.516 41.8392 221.74C42.1112 221.964 42.4592 222.076 42.8832 222.076C43.4672 222.076 43.9472 221.804 44.3232 221.26C44.7072 220.708 44.9112 219.864 44.9352 218.728C44.7432 219.08 44.4432 219.38 44.0352 219.628C43.6352 219.876 43.1712 220 42.6432 220C42.1712 220 41.7272 219.888 41.3112 219.664C40.8952 219.44 40.5592 219.128 40.3032 218.728C40.0472 218.32 39.9192 217.84 39.9192 217.288C39.9192 216.8 40.0392 216.34 40.2792 215.908C40.5192 215.476 40.8552 215.128 41.2872 214.864C41.7272 214.592 42.2472 214.456 42.8472 214.456C43.4632 214.456 43.9832 214.572 44.4072 214.804C44.8312 215.036 45.1712 215.344 45.4272 215.728C45.6832 216.112 45.8672 216.544 45.9792 217.024C46.0992 217.504 46.1592 217.996 46.1592 218.5C46.1592 219.428 46.0272 220.24 45.7632 220.936C45.5072 221.632 45.1352 222.176 44.6472 222.568C44.1592 222.952 43.5672 223.144 42.8712 223.144ZM42.9312 218.908C43.2672 218.908 43.5672 218.832 43.8312 218.68C44.0952 218.528 44.3032 218.328 44.4552 218.08C44.6152 217.824 44.6952 217.544 44.6952 217.24C44.6952 216.912 44.6152 216.624 44.4552 216.376C44.3032 216.12 44.0912 215.92 43.8192 215.776C43.5552 215.632 43.2552 215.56 42.9192 215.56C42.5832 215.56 42.2832 215.632 42.0192 215.776C41.7552 215.92 41.5432 216.12 41.3832 216.376C41.2312 216.624 41.1552 216.908 41.1552 217.228C41.1552 217.74 41.3232 218.148 41.6592 218.452C41.9952 218.756 42.4192 218.908 42.9312 218.908Z" fill="#AFABBA"/>
<path d="M76.8068 223V216.04L75.4508 216.352V215.416L77.3108 214.6H78.1268V223H76.8068ZM79.6654 223V222.088C80.2094 221.656 80.7294 221.22 81.2254 220.78C81.7214 220.34 82.1614 219.908 82.5454 219.484C82.9374 219.052 83.2454 218.632 83.4694 218.224C83.6934 217.808 83.8054 217.408 83.8054 217.024C83.8054 216.768 83.7614 216.528 83.6734 216.304C83.5854 216.072 83.4414 215.888 83.2414 215.752C83.0414 215.608 82.7734 215.536 82.4374 215.536C81.9334 215.536 81.5534 215.696 81.2974 216.016C81.0494 216.336 80.9294 216.72 80.9374 217.168H79.7014C79.7094 216.576 79.8334 216.08 80.0734 215.68C80.3214 215.28 80.6494 214.976 81.0574 214.768C81.4734 214.56 81.9414 214.456 82.4614 214.456C83.2534 214.456 83.8854 214.68 84.3574 215.128C84.8374 215.568 85.0774 216.184 85.0774 216.976C85.0774 217.448 84.9614 217.916 84.7294 218.38C84.5054 218.844 84.2094 219.292 83.8414 219.724C83.4814 220.148 83.0934 220.548 82.6774 220.924C82.2614 221.3 81.8654 221.64 81.4894 221.944H85.3294V223H79.6654ZM86.1606 224.236L89.1606 213.748H90.4086L87.3966 224.236H86.1606ZM93.962 223.144C93.41 223.144 92.938 223.036 92.546 222.82C92.154 222.604 91.846 222.316 91.622 221.956C91.406 221.596 91.274 221.204 91.226 220.78H92.414C92.486 221.196 92.658 221.516 92.93 221.74C93.202 221.964 93.55 222.076 93.974 222.076C94.558 222.076 95.038 221.804 95.414 221.26C95.798 220.708 96.002 219.864 96.026 218.728C95.834 219.08 95.534 219.38 95.126 219.628C94.726 219.876 94.262 220 93.734 220C93.262 220 92.818 219.888 92.402 219.664C91.986 219.44 91.65 219.128 91.394 218.728C91.138 218.32 91.01 217.84 91.01 217.288C91.01 216.8 91.13 216.34 91.37 215.908C91.61 215.476 91.946 215.128 92.378 214.864C92.818 214.592 93.338 214.456 93.938 214.456C94.554 214.456 95.074 214.572 95.498 214.804C95.922 215.036 96.262 215.344 96.518 215.728C96.774 216.112 96.958 216.544 97.07 217.024C97.19 217.504 97.25 217.996 97.25 218.5C97.25 219.428 97.118 220.24 96.854 220.936C96.598 221.632 96.226 222.176 95.738 222.568C95.25 222.952 94.658 223.144 93.962 223.144ZM94.022 218.908C94.358 218.908 94.658 218.832 94.922 218.68C95.186 218.528 95.394 218.328 95.546 218.08C95.706 217.824 95.786 217.544 95.786 217.24C95.786 216.912 95.706 216.624 95.546 216.376C95.394 216.12 95.182 215.92 94.91 215.776C94.646 215.632 94.346 215.56 94.01 215.56C93.674 215.56 93.374 215.632 93.11 215.776C92.846 215.92 92.634 216.12 92.474 216.376C92.322 216.624 92.246 216.908 92.246 217.228C92.246 217.74 92.414 218.148 92.75 218.452C93.086 218.756 93.51 218.908 94.022 218.908Z" fill="#AFABBA"/>
<path d="M127.898 223V216.04L126.542 216.352V215.416L128.402 214.6H129.218V223H127.898ZM130.757 223V222.088C131.301 221.656 131.821 221.22 132.317 220.78C132.813 220.34 133.253 219.908 133.637 219.484C134.029 219.052 134.337 218.632 134.561 218.224C134.785 217.808 134.897 217.408 134.897 217.024C134.897 216.768 134.853 216.528 134.765 216.304C134.677 216.072 134.533 215.888 134.333 215.752C134.133 215.608 133.865 215.536 133.529 215.536C133.025 215.536 132.645 215.696 132.389 216.016C132.141 216.336 132.021 216.72 132.029 217.168H130.793C130.801 216.576 130.925 216.08 131.165 215.68C131.413 215.28 131.741 214.976 132.149 214.768C132.565 214.56 133.033 214.456 133.553 214.456C134.345 214.456 134.977 214.68 135.449 215.128C135.929 215.568 136.169 216.184 136.169 216.976C136.169 217.448 136.053 217.916 135.821 218.38C135.597 218.844 135.301 219.292 134.933 219.724C134.573 220.148 134.185 220.548 133.769 220.924C133.353 221.3 132.957 221.64 132.581 221.944H136.421V223H130.757ZM137.252 224.236L140.252 213.748H141.5L138.488 224.236H137.252ZM145.053 223.144C144.501 223.144 144.029 223.036 143.637 222.82C143.245 222.604 142.937 222.316 142.713 221.956C142.497 221.596 142.365 221.204 142.317 220.78H143.505C143.577 221.196 143.749 221.516 144.021 221.74C144.293 221.964 144.641 222.076 145.065 222.076C145.649 222.076 146.129 221.804 146.505 221.26C146.889 220.708 147.093 219.864 147.117 218.728C146.925 219.08 146.625 219.38 146.217 219.628C145.817 219.876 145.353 220 144.825 220C144.353 220 143.909 219.888 143.493 219.664C143.077 219.44 142.741 219.128 142.485 218.728C142.229 218.32 142.101 217.84 142.101 217.288C142.101 216.8 142.221 216.34 142.461 215.908C142.701 215.476 143.037 215.128 143.469 214.864C143.909 214.592 144.429 214.456 145.029 214.456C145.645 214.456 146.165 214.572 146.589 214.804C147.013 215.036 147.353 215.344 147.609 215.728C147.865 216.112 148.049 216.544 148.161 217.024C148.281 217.504 148.341 217.996 148.341 218.5C148.341 219.428 148.209 220.24 147.945 220.936C147.689 221.632 147.317 222.176 146.829 222.568C146.341 222.952 145.749 223.144 145.053 223.144ZM145.113 218.908C145.449 218.908 145.749 218.832 146.013 218.68C146.277 218.528 146.485 218.328 146.637 218.08C146.797 217.824 146.877 217.544 146.877 217.24C146.877 216.912 146.797 216.624 146.637 216.376C146.485 216.12 146.273 215.92 146.001 215.776C145.737 215.632 145.437 215.56 145.101 215.56C144.765 215.56 144.465 215.632 144.201 215.776C143.937 215.92 143.725 216.12 143.565 216.376C143.413 216.624 143.337 216.908 143.337 217.228C143.337 217.74 143.505 218.148 143.841 218.452C144.177 218.756 144.601 218.908 145.113 218.908Z" fill="#AFABBA"/>
<path d="M178.989 223V216.04L177.633 216.352V215.416L179.493 214.6H180.309V223H178.989ZM181.847 223V222.088C182.391 221.656 182.911 221.22 183.407 220.78C183.903 220.34 184.343 219.908 184.727 219.484C185.119 219.052 185.427 218.632 185.651 218.224C185.875 217.808 185.987 217.408 185.987 217.024C185.987 216.768 185.943 216.528 185.855 216.304C185.767 216.072 185.623 215.888 185.423 215.752C185.223 215.608 184.955 215.536 184.619 215.536C184.115 215.536 183.735 215.696 183.479 216.016C183.231 216.336 183.111 216.72 183.119 217.168H181.883C181.891 216.576 182.015 216.08 182.255 215.68C182.503 215.28 182.831 214.976 183.239 214.768C183.655 214.56 184.123 214.456 184.643 214.456C185.435 214.456 186.067 214.68 186.539 215.128C187.019 215.568 187.259 216.184 187.259 216.976C187.259 217.448 187.143 217.916 186.911 218.38C186.687 218.844 186.391 219.292 186.023 219.724C185.663 220.148 185.275 220.548 184.859 220.924C184.443 221.3 184.047 221.64 183.671 221.944H187.511V223H181.847ZM188.343 224.236L191.343 213.748H192.591L189.579 224.236H188.343ZM196.144 223.144C195.592 223.144 195.12 223.036 194.728 222.82C194.336 222.604 194.028 222.316 193.804 221.956C193.588 221.596 193.456 221.204 193.408 220.78H194.596C194.668 221.196 194.84 221.516 195.112 221.74C195.384 221.964 195.732 222.076 196.156 222.076C196.74 222.076 197.22 221.804 197.596 221.26C197.98 220.708 198.184 219.864 198.208 218.728C198.016 219.08 197.716 219.38 197.308 219.628C196.908 219.876 196.444 220 195.916 220C195.444 220 195 219.888 194.584 219.664C194.168 219.44 193.832 219.128 193.576 218.728C193.32 218.32 193.192 217.84 193.192 217.288C193.192 216.8 193.312 216.34 193.552 215.908C193.792 215.476 194.128 215.128 194.56 214.864C195 214.592 195.52 214.456 196.12 214.456C196.736 214.456 197.256 214.572 197.68 214.804C198.104 215.036 198.444 215.344 198.7 215.728C198.956 216.112 199.14 216.544 199.252 217.024C199.372 217.504 199.432 217.996 199.432 218.5C199.432 219.428 199.3 220.24 199.036 220.936C198.78 221.632 198.408 222.176 197.92 222.568C197.432 222.952 196.84 223.144 196.144 223.144ZM196.204 218.908C196.54 218.908 196.84 218.832 197.104 218.68C197.368 218.528 197.576 218.328 197.728 218.08C197.888 217.824 197.968 217.544 197.968 217.24C197.968 216.912 197.888 216.624 197.728 216.376C197.576 216.12 197.364 215.92 197.092 215.776C196.828 215.632 196.528 215.56 196.192 215.56C195.856 215.56 195.556 215.632 195.292 215.776C195.028 215.92 194.816 216.12 194.656 216.376C194.504 216.624 194.428 216.908 194.428 217.228C194.428 217.74 194.596 218.148 194.932 218.452C195.268 218.756 195.692 218.908 196.204 218.908Z" fill="#AFABBA"/>
<path d="M230.08 223V216.04L228.724 216.352V215.416L230.584 214.6H231.4V223H230.08ZM232.938 223V222.088C233.482 221.656 234.002 221.22 234.498 220.78C234.994 220.34 235.434 219.908 235.818 219.484C236.21 219.052 236.518 218.632 236.742 218.224C236.966 217.808 237.078 217.408 237.078 217.024C237.078 216.768 237.034 216.528 236.946 216.304C236.858 216.072 236.714 215.888 236.514 215.752C236.314 215.608 236.046 215.536 235.71 215.536C235.206 215.536 234.826 215.696 234.57 216.016C234.322 216.336 234.202 216.72 234.21 217.168H232.974C232.982 216.576 233.106 216.08 233.346 215.68C233.594 215.28 233.922 214.976 234.33 214.768C234.746 214.56 235.214 214.456 235.734 214.456C236.526 214.456 237.158 214.68 237.63 215.128C238.11 215.568 238.35 216.184 238.35 216.976C238.35 217.448 238.234 217.916 238.002 218.38C237.778 218.844 237.482 219.292 237.114 219.724C236.754 220.148 236.366 220.548 235.95 220.924C235.534 221.3 235.138 221.64 234.762 221.944H238.602V223H232.938ZM239.434 224.236L242.434 213.748H243.682L240.67 224.236H239.434ZM247.235 223.144C246.683 223.144 246.211 223.036 245.819 222.82C245.427 222.604 245.119 222.316 244.895 221.956C244.679 221.596 244.547 221.204 244.499 220.78H245.687C245.759 221.196 245.931 221.516 246.203 221.74C246.475 221.964 246.823 222.076 247.247 222.076C247.831 222.076 248.311 221.804 248.687 221.26C249.071 220.708 249.275 219.864 249.299 218.728C249.107 219.08 248.807 219.38 248.399 219.628C247.999 219.876 247.535 220 247.007 220C246.535 220 246.091 219.888 245.675 219.664C245.259 219.44 244.923 219.128 244.667 218.728C244.411 218.32 244.283 217.84 244.283 217.288C244.283 216.8 244.403 216.34 244.643 215.908C244.883 215.476 245.219 215.128 245.651 214.864C246.091 214.592 246.611 214.456 247.211 214.456C247.827 214.456 248.347 214.572 248.771 214.804C249.195 215.036 249.535 215.344 249.791 215.728C250.047 216.112 250.231 216.544 250.343 217.024C250.463 217.504 250.523 217.996 250.523 218.5C250.523 219.428 250.391 220.24 250.127 220.936C249.871 221.632 249.499 222.176 249.011 222.568C248.523 222.952 247.931 223.144 247.235 223.144ZM247.295 218.908C247.631 218.908 247.931 218.832 248.195 218.68C248.459 218.528 248.667 218.328 248.819 218.08C248.979 217.824 249.059 217.544 249.059 217.24C249.059 216.912 248.979 216.624 248.819 216.376C248.667 216.12 248.455 215.92 248.183 215.776C247.919 215.632 247.619 215.56 247.283 215.56C246.947 215.56 246.647 215.632 246.383 215.776C246.119 215.92 245.907 216.12 245.747 216.376C245.595 216.624 245.519 216.908 245.519 217.228C245.519 217.74 245.687 218.148 246.023 218.452C246.359 218.756 246.783 218.908 247.295 218.908Z" fill="#AFABBA"/>
<path d="M281.171 223V216.04L279.815 216.352V215.416L281.675 214.6H282.491V223H281.171ZM284.029 223V222.088C284.573 221.656 285.093 221.22 285.589 220.78C286.085 220.34 286.525 219.908 286.909 219.484C287.301 219.052 287.609 218.632 287.833 218.224C288.057 217.808 288.169 217.408 288.169 217.024C288.169 216.768 288.125 216.528 288.037 216.304C287.949 216.072 287.805 215.888 287.605 215.752C287.405 215.608 287.137 215.536 286.801 215.536C286.297 215.536 285.917 215.696 285.661 216.016C285.413 216.336 285.293 216.72 285.301 217.168H284.065C284.073 216.576 284.197 216.08 284.437 215.68C284.685 215.28 285.013 214.976 285.421 214.768C285.837 214.56 286.305 214.456 286.825 214.456C287.617 214.456 288.249 214.68 288.721 215.128C289.201 215.568 289.441 216.184 289.441 216.976C289.441 217.448 289.325 217.916 289.093 218.38C288.869 218.844 288.573 219.292 288.205 219.724C287.845 220.148 287.457 220.548 287.041 220.924C286.625 221.3 286.229 221.64 285.853 221.944H289.693V223H284.029ZM290.524 224.236L293.524 213.748H294.772L291.76 224.236H290.524ZM298.326 223.144C297.774 223.144 297.302 223.036 296.91 222.82C296.518 222.604 296.21 222.316 295.986 221.956C295.77 221.596 295.638 221.204 295.59 220.78H296.778C296.85 221.196 297.022 221.516 297.294 221.74C297.566 221.964 297.914 222.076 298.338 222.076C298.922 222.076 299.402 221.804 299.778 221.26C300.162 220.708 300.366 219.864 300.39 218.728C300.198 219.08 299.898 219.38 299.49 219.628C299.09 219.876 298.626 220 298.098 220C297.626 220 297.182 219.888 296.766 219.664C296.35 219.44 296.014 219.128 295.758 218.728C295.502 218.32 295.374 217.84 295.374 217.288C295.374 216.8 295.494 216.34 295.734 215.908C295.974 215.476 296.31 215.128 296.742 214.864C297.182 214.592 297.702 214.456 298.302 214.456C298.918 214.456 299.438 214.572 299.862 214.804C300.286 215.036 300.626 215.344 300.882 215.728C301.138 216.112 301.322 216.544 301.434 217.024C301.554 217.504 301.614 217.996 301.614 218.5C301.614 219.428 301.482 220.24 301.218 220.936C300.962 221.632 300.59 222.176 300.102 222.568C299.614 222.952 299.022 223.144 298.326 223.144ZM298.386 218.908C298.722 218.908 299.022 218.832 299.286 218.68C299.55 218.528 299.758 218.328 299.91 218.08C300.07 217.824 300.15 217.544 300.15 217.24C300.15 216.912 300.07 216.624 299.91 216.376C299.758 216.12 299.546 215.92 299.274 215.776C299.01 215.632 298.71 215.56 298.374 215.56C298.038 215.56 297.738 215.632 297.474 215.776C297.21 215.92 296.998 216.12 296.838 216.376C296.686 216.624 296.61 216.908 296.61 217.228C296.61 217.74 296.778 218.148 297.114 218.452C297.45 218.756 297.874 218.908 298.386 218.908Z" fill="#AFABBA"/>
<path d="M332.261 223V216.04L330.905 216.352V215.416L332.765 214.6H333.581V223H332.261ZM335.12 223V222.088C335.664 221.656 336.184 221.22 336.68 220.78C337.176 220.34 337.616 219.908 338 219.484C338.392 219.052 338.7 218.632 338.924 218.224C339.148 217.808 339.26 217.408 339.26 217.024C339.26 216.768 339.216 216.528 339.128 216.304C339.04 216.072 338.896 215.888 338.696 215.752C338.496 215.608 338.228 215.536 337.892 215.536C337.388 215.536 337.008 215.696 336.752 216.016C336.504 216.336 336.384 216.72 336.392 217.168H335.156C335.164 216.576 335.288 216.08 335.528 215.68C335.776 215.28 336.104 214.976 336.512 214.768C336.928 214.56 337.396 214.456 337.916 214.456C338.708 214.456 339.34 214.68 339.812 215.128C340.292 215.568 340.532 216.184 340.532 216.976C340.532 217.448 340.416 217.916 340.184 218.38C339.96 218.844 339.664 219.292 339.296 219.724C338.936 220.148 338.548 220.548 338.132 220.924C337.716 221.3 337.32 221.64 336.944 221.944H340.784V223H335.12ZM341.615 224.236L344.615 213.748H345.863L342.851 224.236H341.615ZM349.417 223.144C348.865 223.144 348.393 223.036 348.001 222.82C347.609 222.604 347.301 222.316 347.077 221.956C346.861 221.596 346.729 221.204 346.681 220.78H347.869C347.941 221.196 348.113 221.516 348.385 221.74C348.657 221.964 349.005 222.076 349.429 222.076C350.013 222.076 350.493 221.804 350.869 221.26C351.253 220.708 351.457 219.864 351.481 218.728C351.289 219.08 350.989 219.38 350.581 219.628C350.181 219.876 349.717 220 349.189 220C348.717 220 348.273 219.888 347.857 219.664C347.441 219.44 347.105 219.128 346.849 218.728C346.593 218.32 346.465 217.84 346.465 217.288C346.465 216.8 346.585 216.34 346.825 215.908C347.065 215.476 347.401 215.128 347.833 214.864C348.273 214.592 348.793 214.456 349.393 214.456C350.009 214.456 350.529 214.572 350.953 214.804C351.377 215.036 351.717 215.344 351.973 215.728C352.229 216.112 352.413 216.544 352.525 217.024C352.645 217.504 352.705 217.996 352.705 218.5C352.705 219.428 352.573 220.24 352.309 220.936C352.053 221.632 351.681 222.176 351.193 222.568C350.705 222.952 350.113 223.144 349.417 223.144ZM349.477 218.908C349.813 218.908 350.113 218.832 350.377 218.68C350.641 218.528 350.849 218.328 351.001 218.08C351.161 217.824 351.241 217.544 351.241 217.24C351.241 216.912 351.161 216.624 351.001 216.376C350.849 216.12 350.637 215.92 350.365 215.776C350.101 215.632 349.801 215.56 349.465 215.56C349.129 215.56 348.829 215.632 348.565 215.776C348.301 215.92 348.089 216.12 347.929 216.376C347.777 216.624 347.701 216.908 347.701 217.228C347.701 217.74 347.869 218.148 348.205 218.452C348.541 218.756 348.965 218.908 349.477 218.908Z" fill="#AFABBA"/>
<path d="M383.352 223V216.04L381.996 216.352V215.416L383.856 214.6H384.672V223H383.352ZM386.211 223V222.088C386.755 221.656 387.275 221.22 387.771 220.78C388.267 220.34 388.707 219.908 389.091 219.484C389.483 219.052 389.791 218.632 390.015 218.224C390.239 217.808 390.351 217.408 390.351 217.024C390.351 216.768 390.307 216.528 390.219 216.304C390.131 216.072 389.987 215.888 389.787 215.752C389.587 215.608 389.319 215.536 388.983 215.536C388.479 215.536 388.099 215.696 387.843 216.016C387.595 216.336 387.475 216.72 387.483 217.168H386.247C386.255 216.576 386.379 216.08 386.619 215.68C386.867 215.28 387.195 214.976 387.603 214.768C388.019 214.56 388.487 214.456 389.007 214.456C389.799 214.456 390.431 214.68 390.903 215.128C391.383 215.568 391.623 216.184 391.623 216.976C391.623 217.448 391.507 217.916 391.275 218.38C391.051 218.844 390.755 219.292 390.387 219.724C390.027 220.148 389.639 220.548 389.223 220.924C388.807 221.3 388.411 221.64 388.035 221.944H391.875V223H386.211ZM392.706 224.236L395.706 213.748H396.954L393.942 224.236H392.706ZM400.508 223.144C399.956 223.144 399.484 223.036 399.092 222.82C398.7 222.604 398.392 222.316 398.168 221.956C397.952 221.596 397.82 221.204 397.772 220.78H398.96C399.032 221.196 399.204 221.516 399.476 221.74C399.748 221.964 400.096 222.076 400.52 222.076C401.104 222.076 401.584 221.804 401.96 221.26C402.344 220.708 402.548 219.864 402.572 218.728C402.38 219.08 402.08 219.38 401.672 219.628C401.272 219.876 400.808 220 400.28 220C399.808 220 399.364 219.888 398.948 219.664C398.532 219.44 398.196 219.128 397.94 218.728C397.684 218.32 397.556 217.84 397.556 217.288C397.556 216.8 397.676 216.34 397.916 215.908C398.156 215.476 398.492 215.128 398.924 214.864C399.364 214.592 399.884 214.456 400.484 214.456C401.1 214.456 401.62 214.572 402.044 214.804C402.468 215.036 402.808 215.344 403.064 215.728C403.32 216.112 403.504 216.544 403.616 217.024C403.736 217.504 403.796 217.996 403.796 218.5C403.796 219.428 403.664 220.24 403.4 220.936C403.144 221.632 402.772 222.176 402.284 222.568C401.796 222.952 401.204 223.144 400.508 223.144ZM400.568 218.908C400.904 218.908 401.204 218.832 401.468 218.68C401.732 218.528 401.94 218.328 402.092 218.08C402.252 217.824 402.332 217.544 402.332 217.24C402.332 216.912 402.252 216.624 402.092 216.376C401.94 216.12 401.728 215.92 401.456 215.776C401.192 215.632 400.892 215.56 400.556 215.56C400.22 215.56 399.92 215.632 399.656 215.776C399.392 215.92 399.18 216.12 399.02 216.376C398.868 216.624 398.792 216.908 398.792 217.228C398.792 217.74 398.96 218.148 399.296 218.452C399.632 218.756 400.056 218.908 400.568 218.908Z" fill="#AFABBA"/>
<path d="M434.443 223V216.04L433.087 216.352V215.416L434.947 214.6H435.763V223H434.443ZM437.302 223V222.088C437.846 221.656 438.366 221.22 438.862 220.78C439.358 220.34 439.798 219.908 440.182 219.484C440.574 219.052 440.882 218.632 441.106 218.224C441.33 217.808 441.442 217.408 441.442 217.024C441.442 216.768 441.398 216.528 441.31 216.304C441.222 216.072 441.078 215.888 440.878 215.752C440.678 215.608 440.41 215.536 440.074 215.536C439.57 215.536 439.19 215.696 438.934 216.016C438.686 216.336 438.566 216.72 438.574 217.168H437.338C437.346 216.576 437.47 216.08 437.71 215.68C437.958 215.28 438.286 214.976 438.694 214.768C439.11 214.56 439.578 214.456 440.098 214.456C440.89 214.456 441.522 214.68 441.994 215.128C442.474 215.568 442.714 216.184 442.714 216.976C442.714 217.448 442.598 217.916 442.366 218.38C442.142 218.844 441.846 219.292 441.478 219.724C441.118 220.148 440.73 220.548 440.314 220.924C439.898 221.3 439.502 221.64 439.126 221.944H442.966V223H437.302ZM443.797 224.236L446.797 213.748H448.045L445.033 224.236H443.797ZM451.599 223.144C451.047 223.144 450.575 223.036 450.183 222.82C449.791 222.604 449.483 222.316 449.259 221.956C449.043 221.596 448.911 221.204 448.863 220.78H450.051C450.123 221.196 450.295 221.516 450.567 221.74C450.839 221.964 451.187 222.076 451.611 222.076C452.195 222.076 452.675 221.804 453.051 221.26C453.435 220.708 453.639 219.864 453.663 218.728C453.471 219.08 453.171 219.38 452.763 219.628C452.363 219.876 451.899 220 451.371 220C450.899 220 450.455 219.888 450.039 219.664C449.623 219.44 449.287 219.128 449.031 218.728C448.775 218.32 448.647 217.84 448.647 217.288C448.647 216.8 448.767 216.34 449.007 215.908C449.247 215.476 449.583 215.128 450.015 214.864C450.455 214.592 450.975 214.456 451.575 214.456C452.191 214.456 452.711 214.572 453.135 214.804C453.559 215.036 453.899 215.344 454.155 215.728C454.411 216.112 454.595 216.544 454.707 217.024C454.827 217.504 454.887 217.996 454.887 218.5C454.887 219.428 454.755 220.24 454.491 220.936C454.235 221.632 453.863 222.176 453.375 222.568C452.887 222.952 452.295 223.144 451.599 223.144ZM451.659 218.908C451.995 218.908 452.295 218.832 452.559 218.68C452.823 218.528 453.031 218.328 453.183 218.08C453.343 217.824 453.423 217.544 453.423 217.24C453.423 216.912 453.343 216.624 453.183 216.376C453.031 216.12 452.819 215.92 452.547 215.776C452.283 215.632 451.983 215.56 451.647 215.56C451.311 215.56 451.011 215.632 450.747 215.776C450.483 215.92 450.271 216.12 450.111 216.376C449.959 216.624 449.883 216.908 449.883 217.228C449.883 217.74 450.051 218.148 450.387 218.452C450.723 218.756 451.147 218.908 451.659 218.908Z" fill="#AFABBA"/>
<path d="M485.534 223V216.04L484.178 216.352V215.416L486.038 214.6H486.854V223H485.534ZM488.393 223V222.088C488.937 221.656 489.457 221.22 489.953 220.78C490.449 220.34 490.889 219.908 491.273 219.484C491.665 219.052 491.973 218.632 492.197 218.224C492.421 217.808 492.533 217.408 492.533 217.024C492.533 216.768 492.489 216.528 492.401 216.304C492.313 216.072 492.169 215.888 491.969 215.752C491.769 215.608 491.501 215.536 491.165 215.536C490.661 215.536 490.281 215.696 490.025 216.016C489.777 216.336 489.657 216.72 489.665 217.168H488.429C488.437 216.576 488.561 216.08 488.801 215.68C489.049 215.28 489.377 214.976 489.785 214.768C490.201 214.56 490.669 214.456 491.189 214.456C491.981 214.456 492.613 214.68 493.085 215.128C493.565 215.568 493.805 216.184 493.805 216.976C493.805 217.448 493.689 217.916 493.457 218.38C493.233 218.844 492.937 219.292 492.569 219.724C492.209 220.148 491.821 220.548 491.405 220.924C490.989 221.3 490.593 221.64 490.217 221.944H494.057V223H488.393ZM494.888 224.236L497.888 213.748H499.136L496.124 224.236H494.888ZM502.689 223.144C502.137 223.144 501.665 223.036 501.273 222.82C500.881 222.604 500.573 222.316 500.349 221.956C500.133 221.596 500.001 221.204 499.953 220.78H501.141C501.213 221.196 501.385 221.516 501.657 221.74C501.929 221.964 502.277 222.076 502.701 222.076C503.285 222.076 503.765 221.804 504.141 221.26C504.525 220.708 504.729 219.864 504.753 218.728C504.561 219.08 504.261 219.38 503.853 219.628C503.453 219.876 502.989 220 502.461 220C501.989 220 501.545 219.888 501.129 219.664C500.713 219.44 500.377 219.128 500.121 218.728C499.865 218.32 499.737 217.84 499.737 217.288C499.737 216.8 499.857 216.34 500.097 215.908C500.337 215.476 500.673 215.128 501.105 214.864C501.545 214.592 502.065 214.456 502.665 214.456C503.281 214.456 503.801 214.572 504.225 214.804C504.649 215.036 504.989 215.344 505.245 215.728C505.501 216.112 505.685 216.544 505.797 217.024C505.917 217.504 505.977 217.996 505.977 218.5C505.977 219.428 505.845 220.24 505.581 220.936C505.325 221.632 504.953 222.176 504.465 222.568C503.977 222.952 503.385 223.144 502.689 223.144ZM502.749 218.908C503.085 218.908 503.385 218.832 503.649 218.68C503.913 218.528 504.121 218.328 504.273 218.08C504.433 217.824 504.513 217.544 504.513 217.24C504.513 216.912 504.433 216.624 504.273 216.376C504.121 216.12 503.909 215.92 503.637 215.776C503.373 215.632 503.073 215.56 502.737 215.56C502.401 215.56 502.101 215.632 501.837 215.776C501.573 215.92 501.361 216.12 501.201 216.376C501.049 216.624 500.973 216.908 500.973 217.228C500.973 217.74 501.141 218.148 501.477 218.452C501.813 218.756 502.237 218.908 502.749 218.908Z" fill="#AFABBA"/>
<path d="M536.625 223V216.04L535.269 216.352V215.416L537.129 214.6H537.945V223H536.625ZM539.484 223V222.088C540.028 221.656 540.548 221.22 541.044 220.78C541.54 220.34 541.98 219.908 542.364 219.484C542.756 219.052 543.064 218.632 543.288 218.224C543.512 217.808 543.624 217.408 543.624 217.024C543.624 216.768 543.58 216.528 543.492 216.304C543.404 216.072 543.26 215.888 543.06 215.752C542.86 215.608 542.592 215.536 542.256 215.536C541.752 215.536 541.372 215.696 541.116 216.016C540.868 216.336 540.748 216.72 540.756 217.168H539.52C539.528 216.576 539.652 216.08 539.892 215.68C540.14 215.28 540.468 214.976 540.876 214.768C541.292 214.56 541.76 214.456 542.28 214.456C543.072 214.456 543.704 214.68 544.176 215.128C544.656 215.568 544.896 216.184 544.896 216.976C544.896 217.448 544.78 217.916 544.548 218.38C544.324 218.844 544.028 219.292 543.66 219.724C543.3 220.148 542.912 220.548 542.496 220.924C542.08 221.3 541.684 221.64 541.308 221.944H545.148V223H539.484ZM545.979 224.236L548.979 213.748H550.227L547.215 224.236H545.979ZM553.78 223.144C553.228 223.144 552.756 223.036 552.364 222.82C551.972 222.604 551.664 222.316 551.44 221.956C551.224 221.596 551.092 221.204 551.044 220.78H552.232C552.304 221.196 552.476 221.516 552.748 221.74C553.02 221.964 553.368 222.076 553.792 222.076C554.376 222.076 554.856 221.804 555.232 221.26C555.616 220.708 555.82 219.864 555.844 218.728C555.652 219.08 555.352 219.38 554.944 219.628C554.544 219.876 554.08 220 553.552 220C553.08 220 552.636 219.888 552.22 219.664C551.804 219.44 551.468 219.128 551.212 218.728C550.956 218.32 550.828 217.84 550.828 217.288C550.828 216.8 550.948 216.34 551.188 215.908C551.428 215.476 551.764 215.128 552.196 214.864C552.636 214.592 553.156 214.456 553.756 214.456C554.372 214.456 554.892 214.572 555.316 214.804C555.74 215.036 556.08 215.344 556.336 215.728C556.592 216.112 556.776 216.544 556.888 217.024C557.008 217.504 557.068 217.996 557.068 218.5C557.068 219.428 556.936 220.24 556.672 220.936C556.416 221.632 556.044 222.176 555.556 222.568C555.068 222.952 554.476 223.144 553.78 223.144ZM553.84 218.908C554.176 218.908 554.476 218.832 554.74 218.68C555.004 218.528 555.212 218.328 555.364 218.08C555.524 217.824 555.604 217.544 555.604 217.24C555.604 216.912 555.524 216.624 555.364 216.376C555.212 216.12 555 215.92 554.728 215.776C554.464 215.632 554.164 215.56 553.828 215.56C553.492 215.56 553.192 215.632 552.928 215.776C552.664 215.92 552.452 216.12 552.292 216.376C552.14 216.624 552.064 216.908 552.064 217.228C552.064 217.74 552.232 218.148 552.568 218.452C552.904 218.756 553.328 218.908 553.84 218.908Z" fill="#AFABBA"/>
<path d="M587.716 223V216.04L586.36 216.352V215.416L588.22 214.6H589.036V223H587.716ZM590.575 223V222.088C591.119 221.656 591.639 221.22 592.135 220.78C592.631 220.34 593.071 219.908 593.455 219.484C593.847 219.052 594.155 218.632 594.379 218.224C594.603 217.808 594.715 217.408 594.715 217.024C594.715 216.768 594.671 216.528 594.583 216.304C594.495 216.072 594.351 215.888 594.151 215.752C593.951 215.608 593.683 215.536 593.347 215.536C592.843 215.536 592.463 215.696 592.207 216.016C591.959 216.336 591.839 216.72 591.847 217.168H590.611C590.619 216.576 590.743 216.08 590.983 215.68C591.231 215.28 591.559 214.976 591.967 214.768C592.383 214.56 592.851 214.456 593.371 214.456C594.163 214.456 594.795 214.68 595.267 215.128C595.747 215.568 595.987 216.184 595.987 216.976C595.987 217.448 595.871 217.916 595.639 218.38C595.415 218.844 595.119 219.292 594.751 219.724C594.391 220.148 594.003 220.548 593.587 220.924C593.171 221.3 592.775 221.64 592.399 221.944H596.239V223H590.575ZM597.07 224.236L600.07 213.748H601.318L598.306 224.236H597.07ZM604.871 223.144C604.319 223.144 603.847 223.036 603.455 222.82C603.063 222.604 602.755 222.316 602.531 221.956C602.315 221.596 602.183 221.204 602.135 220.78H603.323C603.395 221.196 603.567 221.516 603.839 221.74C604.111 221.964 604.459 222.076 604.883 222.076C605.467 222.076 605.947 221.804 606.323 221.26C606.707 220.708 606.911 219.864 606.935 218.728C606.743 219.08 606.443 219.38 606.035 219.628C605.635 219.876 605.171 220 604.643 220C604.171 220 603.727 219.888 603.311 219.664C602.895 219.44 602.559 219.128 602.303 218.728C602.047 218.32 601.919 217.84 601.919 217.288C601.919 216.8 602.039 216.34 602.279 215.908C602.519 215.476 602.855 215.128 603.287 214.864C603.727 214.592 604.247 214.456 604.847 214.456C605.463 214.456 605.983 214.572 606.407 214.804C606.831 215.036 607.171 215.344 607.427 215.728C607.683 216.112 607.867 216.544 607.979 217.024C608.099 217.504 608.159 217.996 608.159 218.5C608.159 219.428 608.027 220.24 607.763 220.936C607.507 221.632 607.135 222.176 606.647 222.568C606.159 222.952 605.567 223.144 604.871 223.144ZM604.931 218.908C605.267 218.908 605.567 218.832 605.831 218.68C606.095 218.528 606.303 218.328 606.455 218.08C606.615 217.824 606.695 217.544 606.695 217.24C606.695 216.912 606.615 216.624 606.455 216.376C606.303 216.12 606.091 215.92 605.819 215.776C605.555 215.632 605.255 215.56 604.919 215.56C604.583 215.56 604.283 215.632 604.019 215.776C603.755 215.92 603.543 216.12 603.383 216.376C603.231 216.624 603.155 216.908 603.155 217.228C603.155 217.74 603.323 218.148 603.659 218.452C603.995 218.756 604.419 218.908 604.931 218.908Z" fill="#AFABBA"/>
<defs>
<linearGradient id="paint0_linear_3425_5156" x1="306" y1="11.5" x2="305.5" y2="200" gradientUnits="userSpaceOnUse">
<stop stop-color="#B6E13D"/>
<stop offset="1" stop-color="#F9F7FE"/>
</linearGradient>
<linearGradient id="paint1_linear_3425_5156" x1="312.234" y1="-16.9565" x2="317.057" y2="198.032" gradientUnits="userSpaceOnUse">
<stop stop-color="white"/>
<stop offset="1" stop-color="#C7E76C"/>
</linearGradient>
</defs>
</svg>
